# xmcd
#
# Track frame offsets:
#	150
#	9500
#	19820
#	30603
#	40158
#	49785
#	62705
#	71690
#	83595
#	96210
#	109533
#	121882
#	138780
#	148745
#	164202
#	180260
#	193927
#	207652
#	219160
#	229152
#	240857
#	255522
#	277205
#	295277
#	306565
#	322182
#
# Disc length: 4493 seconds
#
# Revision: 0
# Processed by: cddbd v1.5.2PL0 Copyright (c) Steve Scherf et al.
# Submitted via: EasyCDDAExtractor 11.0.2.1
#
DISCID=81118b1a
DTITLE=The Everly Brothers - The Everly Brothers - perfect harmony - cd 2-2
DYEAR=1900
DGENRE=country
TTITLE0=Gone, gone, gone
TTITLE1=Ferris wheel
TTITLE2=That'll be the day
TTITLE3=The price of love
TTITLE4=I'll never get over you
TTITLE5=Love is strange
TTITLE6=Love hurts
TTITLE7=Dancing in the street
TTITLE8=Bowling green
TTITLE9=It's my time
TTITLE10=Oh, boy
TTITLE11=The air that I breathe
TTITLE12=Sweet grass country Montana
TTITLE13=God bless older ladies (for they made rock and roll)
TTITLE14=Snowflake bombardier
TTITLE15=Yesterday just passed my way again
TTITLE16=Since you broke my heart
TTITLE17=Love at last sight
TTITLE18=Brother juke box
TTITLE19=On the wings of a nightingale
TTITLE20=Lady lady lay
TTITLE21=Why worry
TTITLE22=Born yesterday
TTITLE23=Arms of Mary
TTITLE24=Ride the wind
TTITLE25=Don't worry baby
EXTD=
EXTT0=
EXTT1=
EXTT2=
EXTT3=
EXTT4=
EXTT5=
EXTT6=
EXTT7=
EXTT8=
EXTT9=
EXTT10=
EXTT11=
EXTT12=
EXTT13=
EXTT14=
EXTT15=
EXTT16=
EXTT17=
EXTT18=
EXTT19=
EXTT20=
EXTT21=
EXTT22=
EXTT23=
EXTT24=
EXTT25=
PLAYORDER=
